<?xml version="1.0" encoding="UTF-8"?>
<svg width="25px" height="25px" version="1.1" viewBox="0 0 1200 1200" xmlns="http://www.w3.org/2000/svg">
 <g fill="#696969">
  <path d="m1057 600c0 22.266-1.5234 44.531-4.4531 66.68 0.46875-3.1641 0.82031-6.2109 1.2891-9.375-5.8594 42.773-17.344 84.727-34.102 124.57l3.5156-8.4375c-9.7266 22.852-20.977 44.883-33.984 65.977-6.4453 10.547-13.242 20.742-20.508 30.703-1.7578 2.4609-3.6328 4.9219-5.5078 7.3828-0.82031 1.0547-1.7578 2.9297-2.8125 3.6328-0.11719 0.11719 5.8594-7.6172 2.6953-3.5156-4.1016 5.2734-8.3203 10.43-12.539 15.469-15.586 18.281-32.461 35.508-50.391 51.328-4.5703 4.1016-9.2578 7.9688-14.062 11.953-2.3438 1.9922-4.8047 3.8672-7.1484 5.7422-0.82031 0.58594-1.6406 1.2891-2.4609 1.875 9.6094-7.6172 3.1641-2.4609 1.0547-0.82031-9.8438 7.3828-19.922 14.414-30.352 21.094-23.438 15-48.164 28.008-73.828 38.906 2.8125-1.1719 5.625-2.3438 8.4375-3.5156-39.844 16.758-81.797 28.125-124.57 34.102 3.1641-0.46875 6.2109-0.82031 9.375-1.2891-44.18 5.8594-89.062 5.8594-133.36 0 3.1641 0.46875 6.2109 0.82031 9.375 1.2891-42.773-5.8594-84.727-17.344-124.57-34.102 2.8125 1.1719 5.625 2.3438 8.4375 3.5156-22.852-9.7266-44.883-20.977-65.977-33.984-10.547-6.4453-20.742-13.242-30.703-20.508-2.4609-1.7578-4.9219-3.6328-7.3828-5.5078-1.0547-0.82031-2.9297-1.7578-3.6328-2.8125-0.11719-0.11719 7.6172 5.8594 3.5156 2.6953-5.2734-4.1016-10.43-8.3203-15.469-12.539-18.281-15.586-35.508-32.461-51.328-50.391-4.1016-4.5703-7.9688-9.2578-11.953-14.062-1.9922-2.3438-3.8672-4.8047-5.7422-7.1484-0.58594-0.82031-1.2891-1.6406-1.875-2.4609 7.6172 9.6094 2.4609 3.1641 0.82031 1.0547-7.3828-9.8438-14.414-19.922-21.094-30.352-15-23.438-28.008-48.164-38.906-73.828 1.1719 2.8125 2.3438 5.625 3.5156 8.4375-16.758-39.844-28.125-81.797-34.102-124.57 0.46875 3.1641 0.82031 6.2109 1.2891 9.375-5.8594-44.18-5.8594-89.062 0-133.36-0.46875 3.1641-0.82031 6.2109-1.2891 9.375 5.8594-42.773 17.344-84.727 34.102-124.57-1.1719 2.8125-2.3438 5.625-3.5156 8.4375 9.7266-22.852 20.977-44.883 33.984-65.977 6.4453-10.547 13.242-20.742 20.508-30.703 1.7578-2.4609 3.6328-4.9219 5.5078-7.3828 0.82031-1.0547 1.7578-2.9297 2.8125-3.6328 0.11719-0.11719-5.8594 7.6172-2.6953 3.5156 4.1016-5.2734 8.3203-10.43 12.539-15.469 15.586-18.281 32.461-35.508 50.391-51.328 4.5703-4.1016 9.2578-7.9688 14.062-11.953 2.3438-1.9922 4.8047-3.8672 7.1484-5.7422 0.82031-0.58594 1.6406-1.2891 2.4609-1.875-9.6094 7.6172-3.1641 2.4609-1.0547 0.82031 9.8438-7.3828 19.922-14.414 30.352-21.094 23.438-15 48.164-28.008 73.828-38.906l-8.4375 3.5156c39.844-16.758 81.797-28.125 124.57-34.102-3.1641 0.46875-6.2109 0.82031-9.375 1.2891 44.18-5.8594 89.062-5.8594 133.36 0-3.1641-0.46875-6.2109-0.82031-9.375-1.2891 42.773 5.8594 84.727 17.344 124.57 34.102l-8.4375-3.5156c22.852 9.7266 44.883 20.977 65.977 33.984 10.547 6.4453 20.742 13.242 30.703 20.508 2.4609 1.7578 4.9219 3.6328 7.3828 5.5078 1.0547 0.82031 2.9297 1.7578 3.6328 2.8125 0.11719 0.11719-7.6172-5.8594-3.5156-2.6953 5.2734 4.1016 10.43 8.3203 15.469 12.539 18.281 15.586 35.508 32.461 51.328 50.391 4.1016 4.5703 7.9688 9.2578 11.953 14.062 1.9922 2.3438 3.8672 4.8047 5.7422 7.1484 0.58594 0.82031 1.2891 1.6406 1.875 2.4609-7.6172-9.6094-2.4609-3.1641-0.82031-1.0547 7.3828 9.8438 14.414 19.922 21.094 30.352 15 23.438 28.008 48.164 38.906 73.828l-3.5156-8.4375c16.758 39.844 28.125 81.797 34.102 124.57-0.46875-3.1641-0.82031-6.2109-1.2891-9.375 2.9297 22.148 4.4531 44.414 4.4531 66.68 0 18.398 16.172 35.977 35.156 35.156s35.156-15.469 35.156-35.156c-0.23438-107.7-33.398-215.39-95.977-303.16-63.047-88.359-150.59-155.51-252.54-192.89-102.66-37.734-218.32-41.133-323.32-11.25-101.13 28.828-193.95 88.828-260.86 170.16-35.156 42.891-62.93 89.648-84.023 140.86-20.742 50.508-32.461 104.18-36.562 158.55-8.2031 107.58 18.398 217.73 74.297 310.08 54.258 89.531 135.7 163.48 231.33 206.72 52.266 23.672 106.41 38.438 163.36 45 54.844 6.3281 110.62 3.1641 164.65-7.7344 103.59-20.977 200.51-75.234 273.4-151.64 73.125-76.641 123.63-175.78 139.57-280.66 4.2188-27.891 6.7969-55.781 6.9141-83.906 0-18.398-16.172-35.977-35.156-35.156-19.336 0.70312-35.391 15.352-35.391 35.039z"/>
  <path d="m474.38 775.43c9.9609-9.9609 20.039-20.039 30-30 23.906-23.906 47.695-47.695 71.602-71.602l87.07-87.07c25.078-25.078 50.156-50.156 75.352-75.352 12.188-12.188 24.609-24.141 36.562-36.562 0.11719-0.11719 0.35156-0.35156 0.46875-0.46875 13.008-13.008 13.945-36.914 0-49.688-14.062-12.891-35.859-13.945-49.688 0-9.9609 9.9609-20.039 20.039-30 30-23.906 23.906-47.695 47.695-71.602 71.602l-87.07 87.07c-25.078 25.078-50.156 50.156-75.352 75.352-12.188 12.188-24.609 24.141-36.562 36.562-0.11719 0.11719-0.35156 0.35156-0.46875 0.46875-13.008 13.008-13.945 36.914 0 49.688 13.945 12.891 35.742 13.828 49.688 0z"/>
  <path d="m775.43 725.62c-9.9609-9.9609-20.039-20.039-30-30-23.906-23.906-47.695-47.695-71.602-71.602l-87.07-87.07c-25.078-25.078-50.156-50.156-75.352-75.352-12.188-12.188-24.141-24.609-36.562-36.562-0.11719-0.11719-0.35156-0.35156-0.46875-0.46875-13.008-13.008-36.914-13.945-49.688 0-12.891 14.062-13.945 35.859 0 49.688 9.9609 9.9609 20.039 20.039 30 30 23.906 23.906 47.695 47.695 71.602 71.602l87.07 87.07c25.078 25.078 50.156 50.156 75.352 75.352 12.188 12.188 24.141 24.609 36.562 36.562 0.11719 0.11719 0.35156 0.35156 0.46875 0.46875 13.008 13.008 36.914 13.945 49.688 0 12.891-13.945 13.828-35.742 0-49.688z"/>
 </g>
</svg>
