<?xml version="1.0" encoding="UTF-8"?>
<svg width="25px" height="25px" version="1.1" viewBox="0 0 1200 1200" xmlns="http://www.w3.org/2000/svg">
 <path d="m907.77 232.77c16.422-16.422 43.047-16.422 59.469 0s16.422 43.047 0 59.469l-409.48 409.48c-10.773 10.773-23.625 19.246-37.773 24.902l-77.668 31.07 31.07-77.668c5.6523-14.148 14.129-27 24.902-37.773zm112.5-53.031c-45.707-45.711-119.82-45.711-165.53 0l-409.48 409.48c-17.961 17.957-32.078 39.371-41.512 62.949l-31.066 77.668c-24.492 61.227 36.266 121.98 97.488 97.492l77.672-31.066c23.578-9.4336 44.992-23.555 62.949-41.512l409.48-409.48c45.715-45.711 45.715-119.82 0-165.53zm-720.27 7.7656c-103.55 0-187.5 83.945-187.5 187.5v525c0 103.55 83.945 187.5 187.5 187.5h525c103.55 0 187.5-83.949 187.5-187.5v-303.75c0-20.711-16.789-37.5-37.5-37.5s-37.5 16.789-37.5 37.5v303.75c0 62.129-50.367 112.5-112.5 112.5h-525c-62.133 0-112.5-50.371-112.5-112.5v-525c0-62.133 50.367-112.5 112.5-112.5h303.75c20.711 0 37.5-16.789 37.5-37.5s-16.789-37.5-37.5-37.5z" fill="#696969" fill-rule="evenodd"/>
</svg>
