<?xml version="1.0" encoding="UTF-8"?>
<svg xmlns="http://www.w3.org/2000/svg" xmlns:xlink="http://www.w3.org/1999/xlink" viewBox="0 0 30 30" width="25px" height="25px">
<g id="surface58372079">
<path style=" stroke:none;fill-rule:nonzero;fill:rgb(100%,100%,100%);fill-opacity:1;" d="M 15 1.199219 C 7.386719 1.199219 1.199219 7.386719 1.199219 15 C 1.199219 22.613281 7.386719 28.800781 15 28.800781 C 22.613281 28.800781 28.800781 22.613281 28.800781 15 C 28.800781 7.386719 22.613281 1.199219 15 1.199219 Z M 15 2.398438 C 21.964844 2.398438 27.601562 8.035156 27.601562 15 C 27.601562 15.042969 27.597656 15.085938 27.597656 15.128906 C 27.210938 15.09375 26.769531 15.058594 26.207031 15.039062 C 25.410156 15.011719 24.402344 15.019531 23.265625 15.074219 C 23.304688 14.78125 23.335938 14.484375 23.335938 14.175781 C 23.394531 13.050781 23.015625 12 22.402344 11.074219 C 22.550781 10.5625 22.726562 9.910156 22.769531 9.171875 C 22.820312 8.328125 22.746094 7.394531 22.070312 6.761719 L 21.898438 6.601562 L 21.660156 6.601562 C 20.050781 6.601562 18.949219 7.273438 18.273438 7.808594 C 17.300781 7.429688 16.207031 7.199219 15 7.199219 C 13.785156 7.199219 12.679688 7.433594 11.667969 7.8125 C 10.996094 7.277344 9.890625 6.601562 8.28125 6.601562 L 8.046875 6.601562 L 7.871094 6.761719 C 7.210938 7.371094 7.152344 8.28125 7.191406 9.121094 C 7.230469 9.859375 7.394531 10.53125 7.539062 11.070312 C 6.914062 12.015625 6.539062 13.09375 6.539062 14.160156 C 6.539062 14.464844 6.570312 14.765625 6.609375 15.0625 C 5.527344 15.011719 4.5625 15 3.792969 15.027344 C 3.230469 15.046875 2.789062 15.082031 2.402344 15.117188 C 2.402344 15.078125 2.398438 15.039062 2.398438 15 C 2.398438 8.035156 8.035156 2.398438 15 2.398438 Z M 8.636719 7.878906 C 9.847656 7.992188 10.757812 8.535156 11.179688 8.910156 L 11.460938 9.15625 L 11.808594 9.015625 C 12.757812 8.625 13.816406 8.398438 15 8.398438 C 16.183594 8.398438 17.242188 8.625 18.121094 9.007812 L 18.472656 9.164062 L 18.757812 8.910156 C 19.179688 8.535156 20.09375 7.992188 21.304688 7.878906 C 21.464844 8.144531 21.605469 8.523438 21.570312 9.097656 C 21.53125 9.785156 21.347656 10.535156 21.207031 10.980469 L 21.117188 11.269531 L 21.296875 11.515625 C 21.890625 12.324219 22.191406 13.199219 22.140625 14.125 L 22.140625 14.160156 C 22.140625 15.65625 21.601562 16.855469 20.453125 17.742188 C 19.304688 18.632812 17.492188 19.199219 14.941406 19.199219 C 12.390625 19.199219 10.574219 18.632812 9.425781 17.742188 C 8.277344 16.855469 7.738281 15.65625 7.738281 14.160156 C 7.738281 13.28125 8.058594 12.3125 8.644531 11.515625 L 8.820312 11.277344 L 8.734375 10.992188 C 8.597656 10.519531 8.425781 9.753906 8.390625 9.0625 C 8.363281 8.484375 8.5 8.121094 8.636719 7.878906 Z M 5.332031 15.613281 C 5.753906 15.617188 6.242188 15.640625 6.726562 15.664062 C 6.773438 15.851562 6.828125 16.035156 6.890625 16.214844 C 4.90625 16.257812 3.421875 16.457031 2.507812 16.628906 C 2.46875 16.328125 2.4375 16.027344 2.421875 15.71875 C 3.097656 15.65625 4.050781 15.597656 5.332031 15.613281 Z M 24.667969 15.621094 C 25.949219 15.605469 26.902344 15.664062 27.578125 15.730469 C 27.558594 16.03125 27.53125 16.328125 27.492188 16.625 C 26.542969 16.453125 25.019531 16.253906 22.984375 16.21875 C 23.046875 16.042969 23.101562 15.863281 23.144531 15.679688 C 23.683594 15.652344 24.207031 15.628906 24.667969 15.621094 Z M 7.148438 16.8125 C 7.503906 17.527344 8.015625 18.167969 8.691406 18.691406 C 9.617188 19.40625 10.820312 19.90625 12.285156 20.175781 C 12.09375 20.371094 11.917969 20.585938 11.765625 20.816406 L 11.726562 20.785156 C 11.730469 20.78125 11.429688 20.929688 10.980469 20.972656 C 10.527344 21.011719 9.972656 21 9.480469 21 C 8.746094 21 8.421875 20.652344 7.90625 20.019531 C 7.617188 19.632812 7.269531 19.320312 6.929688 19.085938 C 6.582031 18.839844 6.285156 18.667969 5.917969 18.609375 L 5.871094 18.601562 L 5.820312 18.601562 C 5.539062 18.601562 5.269531 18.621094 5.015625 18.910156 C 4.890625 19.054688 4.800781 19.320312 4.859375 19.546875 C 4.914062 19.773438 5.058594 19.914062 5.1875 20 C 6.007812 20.546875 6.152344 21.628906 6.664062 22.589844 C 7.144531 23.546875 8.179688 24 9.242188 24 L 10.800781 24 L 10.800781 26.882812 C 6.582031 25.390625 3.398438 21.722656 2.597656 17.222656 C 3.519531 17.050781 5.054688 16.839844 7.148438 16.8125 Z M 22.730469 16.816406 C 24.867188 16.835938 26.449219 17.042969 27.402344 17.21875 C 26.601562 21.722656 23.421875 25.390625 19.199219 26.882812 L 19.199219 23.757812 C 19.199219 22.808594 18.886719 21.761719 18.34375 20.886719 C 18.179688 20.621094 17.984375 20.371094 17.769531 20.144531 C 19.160156 19.871094 20.300781 19.378906 21.1875 18.691406 C 21.863281 18.171875 22.371094 17.53125 22.730469 16.816406 Z M 14.21875 20.460938 L 15.898438 20.460938 C 16.386719 20.460938 16.910156 20.847656 17.324219 21.519531 C 17.742188 22.191406 18 23.089844 18 23.757812 L 18 27.238281 C 17.039062 27.472656 16.035156 27.601562 15 27.601562 C 13.964844 27.601562 12.960938 27.472656 12 27.238281 L 12 23.757812 C 12 23.105469 12.28125 22.207031 12.726562 21.53125 C 13.171875 20.859375 13.730469 20.460938 14.21875 20.460938 Z M 7.386719 21.167969 C 7.90625 21.707031 8.535156 22.199219 9.480469 22.199219 C 9.949219 22.199219 10.53125 22.21875 11.085938 22.167969 C 11.089844 22.167969 11.089844 22.167969 11.09375 22.164062 C 11.019531 22.375 10.964844 22.585938 10.917969 22.800781 L 9.242188 22.800781 C 8.5 22.800781 7.976562 22.53125 7.738281 22.050781 L 7.730469 22.042969 L 7.730469 22.035156 C 7.628906 21.851562 7.5 21.488281 7.386719 21.167969 Z M 7.386719 21.167969 "/>
</g>
</svg>
